<svg xmlns="http://www.w3.org/2000/svg" xmlns:xlink="http://www.w3.org/1999/xlink" width="16" height="16" viewBox="0 0 16 16">
  <defs>
    <clipPath id="clip-path">
      <rect id="Rectangle_4114" data-name="Rectangle 4114" width="16" height="16" transform="translate(442 6784)" fill="#fff"/>
    </clipPath>
  </defs>
  <g id="Mask_Group_316" data-name="Mask Group 316" transform="translate(-442 -6784)" clip-path="url(#clip-path)">
    <g id="authentic-69" transform="translate(442 6784)">
      <rect id="Rectangle_4144" data-name="Rectangle 4144" width="16" height="16" fill="none"/>
      <g id="Group_11405" data-name="Group 11405">
        <path id="Path_11017" data-name="Path 11017" d="M9.45,5.5h0Z" fill="#219cd7"/>
        <path id="Path_11018" data-name="Path 11018" d="M7.95,8H8L9.4,5.5H6.55Z" fill="#2ac4f3"/>
        <path id="Path_11019" data-name="Path 11019" d="M9.4,10.5,8,8,6.55,10.5Z" fill="#0d5da8"/>
        <path id="Path_11020" data-name="Path 11020" d="M10.85,8,9.4,5.5,8,8Z" fill="#7dd2f6"/>
        <path id="Path_11021" data-name="Path 11021" d="M8,8Z" fill="#219cd7"/>
        <path id="Path_11022" data-name="Path 11022" d="M5.1,8H7.95L6.55,5.5Z" fill="#5ecbf4"/>
        <path id="Path_11023" data-name="Path 11023" d="M6.55,5.5h0Z" fill="#219cd7"/>
        <path id="Path_11024" data-name="Path 11024" d="M9.4,10.5h0Z" fill="#219cd7"/>
        <path id="Path_11025" data-name="Path 11025" d="M6.55,5.5H3.65L5.1,8h0Z" fill="#0e75bb"/>
        <path id="Path_11026" data-name="Path 11026" d="M10.85,8Z" fill="#219cd7"/>
        <path id="Path_11027" data-name="Path 11027" d="M8,8H8l1.4,2.5h.05L10.85,8H8Z" fill="#26aae1"/>
        <path id="Path_11028" data-name="Path 11028" d="M6.5,10.5h0Z" fill="#219cd7"/>
        <path id="Path_11029" data-name="Path 11029" d="M5.1,8Z" fill="#219cd7"/>
        <path id="Path_11030" data-name="Path 11030" d="M8,8H5.1l1.4,2.5h.05Z" fill="#25b0e5"/>
        <path id="Path_11031" data-name="Path 11031" d="M3.65,5.5Z" fill="#219cd7"/>
        <path id="Path_11032" data-name="Path 11032" d="M9.35.6A12.259,12.259,0,0,0,8,.5,6.325,6.325,0,0,0,6.6.65L7.95,3h0Z" fill="#045ba7"/>
        <path id="Path_11033" data-name="Path 11033" d="M12.3,10.5,10.85,8l-1.4,2.5Z" fill="#16bcef"/>
        <path id="Path_11034" data-name="Path 11034" d="M.95,10.5A8.454,8.454,0,0,0,2.3,12.85L3.65,10.5H.95Z" fill="#1d9dd9"/>
        <path id="Path_11035" data-name="Path 11035" d="M13.75,8,12.3,5.5,10.85,8Z" fill="#26aae1"/>
        <path id="Path_11036" data-name="Path 11036" d="M9.45,5.5H9.4L10.85,8h0L12.3,5.5H9.45Z" fill="#0f84c7"/>
        <path id="Path_11037" data-name="Path 11037" d="M13.7,12.9c.2-.25.4-.5.6-.8l.4-.7c.15-.3.25-.6.4-.9H12.35Z" fill="#045ba7"/>
        <path id="Path_11038" data-name="Path 11038" d="M2.2,8H5.1L3.65,5.5Z" fill="#188dcd"/>
        <path id="Path_11039" data-name="Path 11039" d="M10.85,3,9.45,5.5H12.3Z" fill="#219cd7"/>
        <path id="Path_11040" data-name="Path 11040" d="M10.85,13,9.4,10.5,8,13Z" fill="#0f84c7"/>
        <path id="Path_11041" data-name="Path 11041" d="M8,3,6.55,5.5H9.4Z" fill="#80d0f4"/>
        <path id="Path_11042" data-name="Path 11042" d="M5.1,3,3.65,5.5H6.5Z" fill="#24b0e6"/>
        <path id="Path_11043" data-name="Path 11043" d="M8,13Z" fill="#219cd7"/>
        <path id="Path_11044" data-name="Path 11044" d="M5.1,13H7.95l-1.4-2.5Z" fill="#0f84c7"/>
        <path id="Path_11045" data-name="Path 11045" d="M3.65,10.5H6.5L5.1,8Z" fill="#16bcef"/>
        <path id="Path_11046" data-name="Path 11046" d="M6.55,10.5h0L7.95,13H8l1.4-2.5H6.55Z" fill="#0777bc"/>
        <path id="Path_11047" data-name="Path 11047" d="M5.1,3,6.45.65A8.71,8.71,0,0,0,4.2,1.5L5.1,3Z" fill="#0c7bbf"/>
        <path id="Path_11048" data-name="Path 11048" d="M7.95,3,6.6.65A.184.184,0,0,0,6.45.7L5.1,3Z" fill="#26aae1"/>
        <path id="Path_11049" data-name="Path 11049" d="M8,3h2.85L9.5.65A.184.184,0,0,1,9.35.6Z" fill="#26aae1"/>
        <path id="Path_11050" data-name="Path 11050" d="M.85,5.7A8.515,8.515,0,0,0,.5,8H2.2Z" fill="#128acb"/>
        <path id="Path_11051" data-name="Path 11051" d="M2.4,3H5.05L4.2,1.5A8.446,8.446,0,0,0,2.4,3Z" fill="#219cd7"/>
        <path id="Path_11052" data-name="Path 11052" d="M2.2,8H.5a9.209,9.209,0,0,0,.35,2.35L2.2,8Z" fill="#046bb4"/>
        <path id="Path_11053" data-name="Path 11053" d="M10.85,3l.85-1.5A7.213,7.213,0,0,0,9.45.65L10.85,3Z" fill="#40c6f3"/>
        <path id="Path_11054" data-name="Path 11054" d="M12.3,5.5,13.75,8h0L15.1,5.65c0-.05-.05-.1-.05-.15Z" fill="#219cd7"/>
        <path id="Path_11055" data-name="Path 11055" d="M13.6,3a7.616,7.616,0,0,0-1.85-1.5L10.9,3Z" fill="#1a87c8"/>
        <path id="Path_11056" data-name="Path 11056" d="M10.85,13l.85,1.5A6.774,6.774,0,0,0,13.55,13Z" fill="#128acb"/>
        <path id="Path_11057" data-name="Path 11057" d="M12.3,10.5h2.75a.175.175,0,0,1,.05-.1L13.75,8Z" fill="#219cd7"/>
        <path id="Path_11058" data-name="Path 11058" d="M12.3,10.5,10.85,13h2.7l.1-.1Z" fill="#0e80c3"/>
        <path id="Path_11059" data-name="Path 11059" d="M13.75,8Z" fill="#219cd7"/>
        <path id="Path_11060" data-name="Path 11060" d="M13.75,8H15.5a7.48,7.48,0,0,0-.4-2.35Z" fill="#045ba7"/>
        <path id="Path_11061" data-name="Path 11061" d="M13.75,8l1.35,2.35a7.549,7.549,0,0,0,.4-2.4L13.75,8Z" fill="#148acb"/>
        <path id="Path_11062" data-name="Path 11062" d="M5.1,13l-.85,1.5a6.507,6.507,0,0,0,2.2.85Z" fill="#045ba7"/>
        <path id="Path_11063" data-name="Path 11063" d="M5.1,13H2.4a7.615,7.615,0,0,0,1.85,1.5L5.1,13Z" fill="#219cd7"/>
        <path id="Path_11064" data-name="Path 11064" d="M3.65,10.5,2.3,12.85c.05.05.1.1.1.15H5.05Z" fill="#0e80c3"/>
        <path id="Path_11065" data-name="Path 11065" d="M3.65,10.5,2.2,8,.85,10.3c0,.05.05.1.05.15H3.65Z" fill="#168ecd"/>
        <path id="Path_11066" data-name="Path 11066" d="M9.5,15.35a6.507,6.507,0,0,0,2.2-.85L10.85,13Z" fill="#0872b9"/>
        <path id="Path_11067" data-name="Path 11067" d="M10.85,3Z" fill="#219cd7"/>
        <path id="Path_11068" data-name="Path 11068" d="M5.1,3Z" fill="#219cd7"/>
        <path id="Path_11069" data-name="Path 11069" d="M3.65,5.5,5.1,3H2.4c-.05.05-.1.1-.1.15L3.65,5.5Z" fill="#26aae1"/>
        <path id="Path_11070" data-name="Path 11070" d="M3.65,5.5H.95c0,.05-.05.15-.05.2L2.2,8h0Z" fill="#219cd7"/>
        <path id="Path_11071" data-name="Path 11071" d="M6.5,5.5h.05L8,3H5.1Z" fill="#1a87c8"/>
        <path id="Path_11072" data-name="Path 11072" d="M2.3,3.15A7.374,7.374,0,0,0,.95,5.5h2.7Z" fill="#045ba7"/>
        <path id="Path_11073" data-name="Path 11073" d="M8,3H8Z" fill="#219cd7"/>
        <path id="Path_11074" data-name="Path 11074" d="M12.3,5.5Z" fill="#219cd7"/>
        <path id="Path_11075" data-name="Path 11075" d="M10.85,8h0l1.45,2.5h0L13.75,8h-2.9Z" fill="#0872b9"/>
        <path id="Path_11076" data-name="Path 11076" d="M12.3,5.5h0l1.4-2.4c-.05-.05-.05-.1-.1-.1H10.9Z" fill="#24b0e6"/>
        <path id="Path_11077" data-name="Path 11077" d="M9.4,5.5h.05L10.85,3H8Z" fill="#0c7bbf"/>
        <path id="Path_11078" data-name="Path 11078" d="M2.2,8Z" fill="#219cd7"/>
        <path id="Path_11079" data-name="Path 11079" d="M8,13H8l1.35,2.4a.378.378,0,0,0,.2-.05L10.9,13H8Z" fill="#219cd7"/>
        <path id="Path_11080" data-name="Path 11080" d="M9.45,10.5H9.4L10.85,13h0l1.45-2.5H9.45Z" fill="#046eb6"/>
        <path id="Path_11081" data-name="Path 11081" d="M12.3,10.5Z" fill="#219cd7"/>
        <path id="Path_11082" data-name="Path 11082" d="M6.6,15.35A6.325,6.325,0,0,0,8,15.5a12.259,12.259,0,0,0,1.35-.1L8,13Z" fill="#219cd7"/>
        <path id="Path_11083" data-name="Path 11083" d="M6.55,10.5H3.65L5.1,13h0Z" fill="#086db5"/>
        <path id="Path_11084" data-name="Path 11084" d="M7.95,13H5.1l1.35,2.3c.05,0,.15.05.2.05L7.95,13Z" fill="#0c7bbf"/>
        <path id="Path_11085" data-name="Path 11085" d="M5.1,8H2.2l1.45,2.5h0Z" fill="#045ba7"/>
        <path id="Path_11086" data-name="Path 11086" d="M3.65,10.5Z" fill="#219cd7"/>
        <path id="Path_11087" data-name="Path 11087" d="M5.1,13Z" fill="#219cd7"/>
        <path id="Path_11088" data-name="Path 11088" d="M14.8,4.85h0a8.549,8.549,0,0,0-.65-1.15h0l-.45-.6L12.3,5.5h2.75A3.472,3.472,0,0,0,14.8,4.85Z" fill="#0c7bbf"/>
        <path id="Path_11089" data-name="Path 11089" d="M8,14.7A6.7,6.7,0,1,1,14.7,8,6.7,6.7,0,0,1,8,14.7ZM8,1.75A6.25,6.25,0,1,0,14.25,8,6.252,6.252,0,0,0,8,1.75Z" fill="#b3e3f9"/>
      </g>
    </g>
  </g>
</svg>
