<svg xmlns="http://www.w3.org/2000/svg" xmlns:xlink="http://www.w3.org/1999/xlink" width="20" height="20" viewBox="0 0 20 20">
  <defs>
    <clipPath id="clip-path">
      <rect id="Rectangle_4129" data-name="Rectangle 4129" width="20" height="20" transform="translate(-9663 14018)" fill="#fff" stroke="#e0e0e0" stroke-width="1"/>
    </clipPath>
  </defs>
  <g id="Group_11390" data-name="Group 11390" transform="translate(-125 -177)">
    <g id="Mask_Group_309" data-name="Mask Group 309" transform="translate(9788 -13841)" clip-path="url(#clip-path)">
      <g id="logo--instagram" transform="translate(-9663 14018)">
        <circle id="Ellipse_1411" data-name="Ellipse 1411" cx="0.9" cy="0.9" r="0.9" transform="translate(13.103 5.096)" fill="#525252"/>
        <path id="Path_11003" data-name="Path 11003" d="M10,6.149A3.851,3.851,0,1,0,13.851,10,3.851,3.851,0,0,0,10,6.149ZM10,12.5A2.5,2.5,0,1,1,12.5,10,2.5,2.5,0,0,1,10,12.5Z" fill="#525252"/>
        <path id="Path_11004" data-name="Path 11004" d="M10,3.851c2,0,2.24.008,3.031.044a4.151,4.151,0,0,1,1.393.258,2.484,2.484,0,0,1,1.423,1.423A4.151,4.151,0,0,1,16.1,6.969c.036.791.044,1.028.044,3.031s-.008,2.24-.044,3.031a4.151,4.151,0,0,1-.258,1.393,2.484,2.484,0,0,1-1.423,1.423,4.151,4.151,0,0,1-1.393.258c-.791.036-1.028.044-3.031.044s-2.24-.008-3.031-.044a4.151,4.151,0,0,1-1.393-.258,2.484,2.484,0,0,1-1.423-1.423A4.151,4.151,0,0,1,3.9,13.031C3.859,12.24,3.851,12,3.851,10s.008-2.24.044-3.031a4.151,4.151,0,0,1,.258-1.393A2.484,2.484,0,0,1,5.577,4.153,4.151,4.151,0,0,1,6.969,3.9C7.76,3.859,8,3.851,10,3.851M10,2.5c-2.037,0-2.292.009-3.092.045a5.5,5.5,0,0,0-1.82.349A3.835,3.835,0,0,0,2.894,5.087a5.5,5.5,0,0,0-.349,1.821C2.509,7.708,2.5,7.963,2.5,10s.009,2.292.045,3.092a5.5,5.5,0,0,0,.349,1.821,3.835,3.835,0,0,0,2.194,2.194,5.5,5.5,0,0,0,1.821.349c.8.036,1.055.045,3.092.045s2.292-.009,3.092-.045a5.5,5.5,0,0,0,1.821-.349,3.835,3.835,0,0,0,2.194-2.194,5.5,5.5,0,0,0,.349-1.821c.036-.8.045-1.055.045-3.092s-.009-2.292-.045-3.092a5.5,5.5,0,0,0-.349-1.82,3.835,3.835,0,0,0-2.194-2.193,5.5,5.5,0,0,0-1.821-.349C12.292,2.509,12.037,2.5,10,2.5Z" fill="#525252"/>
        <rect id="_Transparent_Rectangle_" data-name="&lt;Transparent Rectangle&gt;" width="20" height="20" fill="none"/>
      </g>
    </g>
  </g>
</svg>
